<?xml version="1.0" standalone="no"?>
<!DOCTYPE svg PUBLIC "-//W3C//DTD SVG 1.1//EN" "http://www.w3.org/Graphics/SVG/1.1/DTD/svg11.dtd" >
<!--
2013-9-30: Created.
-->
<svg>
<metadata>
Created by iconfont
</metadata>
<defs>

<font id="iconfont" horiz-adv-x="1024" >
  <font-face
    font-family="iconfont"
    font-weight="500"
    font-stretch="normal"
    units-per-em="1024"
    ascent="896"
    descent="-128"
  />
    <missing-glyph />
    
    <glyph glyph-name="heart-fill" unicode="&#59050;" d="M492.65791016 54.31611327999997L218.36269531 318.94248046999996c-3.51738281 3.07705078-100.22431641 91.43349609-100.2243164 196.93037109 0 128.79492188 78.68496094 205.72119141 210.11923828 205.72119141 76.92451172 0 149.01503906-60.66123047 183.74238281-94.94824219 34.72734375 34.28701172 106.81787109 94.94824219 183.74326172 94.94824219 131.43339844 0 210.11835938-76.92626953 210.11835937-205.72119141 0-105.49775391-96.70693359-193.85419922-100.66376953-197.81103515L531.34208984 54.31611327999997c-5.2734375-5.2734375-12.30732422-7.91015625-19.34208984-7.91015625C504.96611328 46.40595702999997 497.93134766 49.04267577999997 492.65791016 54.31611327999997z"  horiz-adv-x="1024" />

    
    <glyph glyph-name="male" unicode="&#58993;" d="M889.984 742.592c-4.16 10.048-12.16 18.048-22.272 22.272C862.72 766.912 857.408 768 852.032 768l-205.184 0C624.192 768 605.76 749.568 605.76 726.848s18.432-41.152 41.152-41.152l105.856 0L616.96 549.952c-50.752 37.632-113.28 60.16-181.12 60.16-168.192 0-305.024-136.832-305.024-305.024C130.816 136.832 267.648 0 435.84 0s305.024 136.832 305.024 305.024c0 70.72-24.448 135.744-64.96 187.52l134.976 134.976 0-105.856c0-22.72 18.432-41.152 41.152-41.152 22.72 0 41.152 18.432 41.152 41.152L893.184 726.848C893.184 732.224 892.096 737.536 889.984 742.592zM435.84 82.24c-122.816 0-222.784 99.968-222.784 222.784S313.024 527.808 435.84 527.808s222.784-99.904 222.784-222.784S558.72 82.24 435.84 82.24z"  horiz-adv-x="1024" />

    
    <glyph glyph-name="app" unicode="&#58932;" d="M446.34570311 171.30468777L446.34570311 171.30468777 446.34570311 310.96289062000005l-139.74609373 1e-8c-74.7949216 0-139.74609375-64.77539035-139.74609376-139.65820286s64.95117215-139.74609375 139.74609376-139.74609375C381.39453098 31.558594019999987 446.34570311 96.50976534999995 446.34570311 171.30468777M496.2675784 171.30468777c0-104.76562527-84.81445285-189.58007813-189.66796902-189.58007812-104.76562527 0-189.58007813 84.81445285-189.58007813 189.58007812s84.81445285 189.58007813 189.58007813 189.58007813l124.80468777 0 64.86328125 0 0-64.86328125L496.2675784 171.30468777M586.09179689 171.30468777L586.09179689 310.96289062000005l139.74609373 1e-8c74.70703152 0 139.57031277-59.85351563 139.57031278-139.65820286 0-74.8828125-59.76562473-139.74609375-139.57031277-139.74609375C650.86718723 31.558594019999987 586.09179689 96.50976534999995 586.09179689 171.30468777M536.1699216 171.30468777c0-104.76562527 84.81445285-189.58007813 189.66796902-189.58007812 104.58984348 0 189.58007813 84.81445285 189.58007813 189.58007812S830.4277341 360.88476590000005 725.74999973 360.88476590000005l-124.80468777 0L536.1699216 360.88476590000005l0-64.86328125L536.1699216 171.30468777M446.34570311 590.45507813l2e-8-139.74609376-139.74609376 1e-8c-79.80468723 0-139.74609375 64.86328125-139.74609374 139.74609374 0 79.80468723 59.94140652 139.74609375 139.74609374 139.74609376C381.39453098 730.20117188 446.34570311 670.25976535 446.34570311 590.45507813M496.2675784 590.45507813c0 104.76562527-84.81445285 189.58007813-189.66796902 189.58007812-104.76562527 0-189.58007813-84.81445285-189.58007813-189.58007813s84.81445285-189.66796902 189.58007813-189.66796902l124.80468777 0 64.86328125 0L496.2675784 465.65039035 496.2675784 590.45507813M586.09179689 590.45507813l-2e-8-139.74609376 139.74609376 1e-8c74.70703152 0 139.57031277 59.94140652 139.57031277 139.74609374s-59.76562473 139.74609375-139.57031277 139.74609376C650.86718723 730.20117188 586.09179689 670.25976535 586.09179689 590.45507813M536.1699216 590.45507813L536.1699216 590.45507813c0 104.76562527 84.81445285 189.58007813 189.66796902 189.58007812 104.58984348 0 189.58007813-84.81445285 189.58007813-189.58007813S830.4277341 400.7871091 725.74999973 400.7871091l-124.80468777 0L536.1699216 400.7871091 536.1699216 465.65039035 536.1699216 590.45507813"  horiz-adv-x="1024" />

    
    <glyph glyph-name="comment" unicode="&#58886;" d="M849.03389141 721.51596445H174.44895927c-31.04515107 0-56.21188799-25.16673691-56.21188798-56.21188886v-449.73018282c0-31.04515107 25.16673691-56.21188799 56.21188799-56.21188798h112.43097246v-140.76536133c0-0.04227099 0.00809472-0.08184463 0.00899385-0.12411563 0.18887167-15.36068584 12.69309375-27.75698086 28.09874883-27.75698086 8.94353643 0 16.90493818 4.18216464 22.05304805 10.69195079l158.51122909 157.95450703H849.03299141c31.04515107 0 56.21188799 25.16673691 56.21188886 56.21188799V665.30407558c0.00089912 31.04515107-25.16583779 56.21188799-56.21098886 56.21188887z m0-478.05737695c0-15.39845948-12.48263701-27.88109648-27.88109737-27.88109737H463.62090078L343.09541709 96.85078739999994V215.57749013H202.33005664c-15.39845948 0-27.88109648 12.48263701-27.88109737 27.88109737V637.4193817400001c0 15.39845948 12.48263701 27.88109648 27.88109737 27.88109648h618.8227374c15.39845948 0 27.88109648-12.48263701 27.88109737-27.88109648v-393.96079424zM736.60291895 524.5360169c0-15.39845948-12.48263701-27.88109648-27.88109648-27.88109737H314.76102823c-15.39845948 0-27.88109648 12.48263701-27.88109649 27.88109737v0.45329238c0 15.39845948 12.48263701 27.88109648 27.88109649 27.88109648h393.96079424c15.39845948 0 27.88109648-12.48263701 27.88109648-27.88109648v-0.45329238zM624.17284648 412.10504443c0-15.39845948-12.48263701-27.88109648-27.88109648-27.88109648H314.76102823c-15.39845948 0-27.88109648 12.48263701-27.88109649 27.88109648v0.45329326c0 15.39845948 12.48263701 27.88109648 27.88109649 27.88109649h281.52982265c15.39845948 0 27.88109648-12.48263701 27.88109649-27.88109649v-0.45329326z"  horiz-adv-x="1024" />

    
    <glyph glyph-name="edit" unicode="&#58953;" d="M774.6171875 443.765625c-13.88671875 0-27.0703125-18.984375-27.0703125-32.87109375V118.5703125c0-33.046875-25.40039063-58.44726563-58.44726563-58.44726563h-448.24218749c-33.046875 0-58.44726563 25.40039063-58.44726563 58.44726563V566.90039063c0 33.13476563 25.40039063 58.44726563 58.44726562 58.44726562h253.38867188c13.88671875 0 30.234375 14.50195313 30.234375 28.38867187 0 13.88671875-16.34765625 30.05859375-30.234375 30.05859375H240.85742187c-66.09375 0-116.98242188-50.71289063-116.98242187-116.98242187v-448.2421875c0-66.18164063 50.88867188-116.98242188 116.98242188-116.98242188h448.33007812c66.09375 0 116.98242188 31.2890625 116.98242188 97.47070313V410.89453125c-0.08789063 13.88671875-17.578125 32.87109375-31.55273438 32.87109375z m99.05273438 272.8125l-36.82617188 36.82617188c-27.94921875 28.03710938-77.16796875 28.03710938-105.20507813 0l-69.52148437-81.73828126-370.45898438-354.72656249v-8.61328126l-0.26367187-1.49414062-46.58203125-158.02734375 34.18945313-30.5859375 149.50195312 52.734375 1.84570313-0.43945313h7.29492187l354.28710938 371.07421876 81.65039062 66.70898437c29.09179688 29.00390625 29.09179688 79.27734375 0.08789063 108.28125zM310.64257812 183.52148437000005l21.79687501 69.34570313 43.50585937-43.59375-65.30273438-25.75195313z m109.42382813 51.67968751l-63.984375 64.07226562 331.25976563 329.58984375L749.3046875 566.8125 420.06640625 235.20117187000005z m418.53515625 411.15234374l-49.39453125-49.39453124-71.89453125 71.98242187 49.30664063 49.39453125c4.65820313 4.65820313 10.8984375 7.20703125 17.578125 7.20703125s12.91992188-2.54882813 17.49023437-7.20703125l36.73828125-36.82617188c9.84375-9.66796875 9.84375-25.48828125 0.17578125-35.15625z"  horiz-adv-x="1024" />

    
    <glyph glyph-name="location" unicode="&#59037;" d="M511.70336992-11.5078125c-9.04721572 0-17.60004822 4.10338197-23.23601832 11.22250251L287.94545457 252.24571837999997C184.17438425 392.8977887 189.85979284 581.7522377 300.50279207 692.39523695A296.60530586 296.60530586 0 0 0 511.65393144 779.50558777h0.04943848c79.94179181 0 154.93974987-30.94839904 211.10170088-87.11035082 110.64299924-110.64299924 116.37784629-299.54688672 13.24947463-439.30906678l-201.1151572-253.37148016a29.5888448 29.5888448 0 0 0-23.23601831-11.22250251m-0.04943848 731.68739525a237.50177321 237.50177321 0 0 1-169.17799095-69.75749423c-90.07665093-90.02721245-93.29014263-245.75797563-7.41575063-362.13582269l176.59374158-222.42308034 177.2858787 223.26353212c85.23169413 115.53739451 82.01820165 271.21871999-8.10788775 361.29537092A237.30402008 237.30402008 0 0 1 511.70336992 720.17958275h-0.04943848m0.02471924-392.49096156c-81.77101003 0-148.31501255 66.54400252-148.31501256 148.31501255s66.54400252 148.31501255 148.31501256 148.31501254 148.31501255-66.54400252 148.31501255-148.31501254-66.54400252-148.31501255-148.31501255-148.31501255m0 237.30402008a89.06316524 89.06316524 0 0 1-88.98900753-88.98900753c0-49.04283048 39.89673858-88.98900753 88.98900753-88.98900753s88.98900753 39.94617706 88.98900753 88.98900753c0 49.09226896-39.89673858 88.98900753-88.98900753 88.98900753"  horiz-adv-x="1024" />

    
    <glyph glyph-name="arrow-right" unicode="&#58888;" d="M761.056 363.872c0.512 0.992 1.344 1.824 1.792 2.848 8.8 18.304 5.92 40.704-9.664 55.424L399.936 756.256c-19.264 18.208-49.632 17.344-67.872-1.888-18.208-19.264-17.376-49.632 1.888-67.872l316.96-299.84L335.2 82.368c-19.072-18.4-19.648-48.768-1.248-67.872 9.408-9.792 21.984-14.688 34.56-14.688 12 0 24 4.48 33.312 13.44l350.048 337.376c0.672 0.672 0.928 1.6 1.6 2.304 0.512 0.48 1.056 0.832 1.568 1.344 2.72 2.848 4.16 6.336 6.016 9.6z"  horiz-adv-x="1024" />

    
    <glyph glyph-name="arrow-left" unicode="&#58889;" d="M671.968-16c-12.288 0-24.576 4.672-33.952 14.048L286.048 350.016c-18.752 18.72-18.752 49.12 0 67.872l351.968 352c18.752 18.752 49.12 18.752 67.872 0 18.752-18.72 18.752-49.12 0-67.872L387.872 383.968l318.016-318.016c18.752-18.752 18.752-49.12 0-67.872-9.344-9.408-21.632-14.08-33.92-14.08z"  horiz-adv-x="1024" />

    
    <glyph glyph-name="add" unicode="&#58890;" d="M863.328 413.44l-317.344 1.12V733.184c0 17.664-14.336 32-32 32s-32-14.336-32-32v-318.4l-322.368 1.152h-0.096c-17.632 0-31.936-14.24-32-31.904-0.096-17.664 14.208-32.032 31.872-32.096l322.592-1.152v-319.168c0-17.696 14.336-32 32-32s32 14.304 32 32V350.56l317.088-1.12h0.128c17.632 0 31.936 14.24 32 31.904 0.064 17.664-14.24 32.032-31.872 32.096z"  horiz-adv-x="1024" />

    
    <glyph glyph-name="star-fill" unicode="&#58892;" d="M44.223 888.062zM987.715 521.216q0-12.479-14.748-27.211L767.15 293.285l48.755-283.497q0.571-3.97 0.571-11.336 0-11.907-5.953-20.13t-17.29-8.224q-10.779 0-22.686 6.81L515.961 110.727 261.374-23.092q-12.478-6.81-22.687-6.81-11.907 0-17.86 8.223t-5.954 20.131q0 3.398 1.127 11.336l48.756 283.497-206.388 200.72q-14.177 15.304-14.177 27.211 0 20.972 31.752 26.084l284.64 41.389 127.58 257.984q10.779 23.243 27.782 23.243t27.783-23.243l127.58-257.984 284.64-41.389q31.752-5.096 31.752-26.084z"  horiz-adv-x="1024" />

    
    <glyph glyph-name="fold" unicode="&#58894;" d="M887.328 278.848L533.952 628.992c-0.512 0.512-1.216 0.672-1.76 1.152-0.128 0.128-0.16 0.32-0.288 0.448-12.576 12.416-32.832 12.352-45.28-0.192L136.512 277.056c-12.448-12.576-12.352-32.8 0.192-45.248a31.972 31.972 0 0 1 22.528-9.28c8.224 0 16.48 3.168 22.72 9.472l327.84 330.816 332.48-329.408a31.917 31.917 0 0 1 22.528-9.28c8.256 0 16.48 3.168 22.72 9.472 12.448 12.544 12.352 32.8-0.192 45.248z"  horiz-adv-x="1024" />

    
    <glyph glyph-name="round" unicode="&#58895;" d="M512-64C264.96-64 64 136.96 64 384S264.96 832 512 832s448-200.96 448-448-200.96-448-448-448z m0 832c-211.744 0-384-172.256-384-384s172.256-384 384-384 384 172.256 384 384-172.256 384-384 384z"  horiz-adv-x="1024" />

    
    <glyph glyph-name="square" unicode="&#58896;" d="M832-32H192c-52.928 0-96 43.072-96 96V704c0 52.928 43.072 96 96 96h640c52.928 0 96-43.072 96-96v-640c0-52.928-43.072-96-96-96zM192 736c-17.632 0-32-14.368-32-32v-640c0-17.664 14.368-32 32-32h640c17.664 0 32 14.336 32 32V704c0 17.632-14.336 32-32 32H192z"  horiz-adv-x="1024" />

    
    <glyph glyph-name="check" unicode="&#58897;" d="M887.904 597.792c-12.864 12.064-33.152 11.488-45.216-1.408L415.936 142.016l-233.12 229.696c-12.608 12.416-32.864 12.288-45.28-0.32-12.416-12.576-12.256-32.864 0.352-45.248l256.48-252.672c0.096-0.096 0.224-0.128 0.32-0.224s0.128-0.224 0.224-0.32c2.016-1.92 4.448-3.008 6.784-4.288 1.152-0.672 2.144-1.664 3.36-2.144 3.776-1.472 7.776-2.24 11.744-2.24 4.192 0 8.384 0.832 12.288 2.496 1.312 0.544 2.336 1.664 3.552 2.368 2.4 1.408 4.896 2.592 6.944 4.672 0.096 0.096 0.128 0.256 0.224 0.352 0.064 0.096 0.192 0.128 0.288 0.224L889.28 552.576c12.16 12.832 11.488 33.088-1.376 45.216z"  horiz-adv-x="1024" />

    
    <glyph glyph-name="unfold" unicode="&#58898;" d="M890.336 565.088c-12.576 12.416-32.8 12.352-45.248-0.192l-327.84-330.848-332.416 329.44c-12.576 12.448-32.8 12.352-45.28-0.192-12.448-12.576-12.352-32.832 0.192-45.28l353.312-350.112c0.544-0.544 1.248-0.672 1.792-1.184 0.128-0.128 0.16-0.288 0.288-0.416a31.972 31.972 0 0 1 22.528-9.28c8.224 0 16.48 3.168 22.72 9.472l350.112 353.312c12.48 12.576 12.384 32.832-0.16 45.28z"  horiz-adv-x="1024" />

    
    <glyph glyph-name="subtract" unicode="&#58899;" d="M863.744 352h-700.32c-17.664 0-32 14.336-32 32s14.336 32 32 32h700.32c17.696 0 32-14.336 32-32s-14.304-32-32-32z"  horiz-adv-x="1024" />

    
    <glyph glyph-name="close" unicode="&#58900;" d="M557.312 382.752l265.28 263.904c12.544 12.48 12.608 32.704 0.128 45.248-12.512 12.576-32.704 12.608-45.248 0.128L512.128 428.096l-263.04 263.84c-12.448 12.48-32.704 12.544-45.248 0.064-12.512-12.48-12.544-32.736-0.064-45.28l262.976-263.776L201.6 119.2c-12.544-12.48-12.608-32.704-0.128-45.248a31.937 31.937 0 0 1 22.688-9.44c8.16 0 16.32 3.104 22.56 9.312l265.216 263.808 265.44-266.24c6.24-6.272 14.432-9.408 22.656-9.408a31.94 31.94 0 0 1 22.592 9.344c12.512 12.48 12.544 32.704 0.064 45.248L557.312 382.752z"  horiz-adv-x="1024" />

    
    <glyph glyph-name="cart" unicode="&#58949;" d="M910.9932251 681.95663452c-15.34817505 17.32901001-36.43615723 26.84838867-59.38137818 26.84838868H331.62783813c-16.57754516 0-30.03387451-12.27392578-30.03387451-28.84899903 0-2.2651062 0.25213623-4.45028687 0.72839356-6.53741455 0.09310913-0.40621948 0.26779175-0.76712036 0.37655639-1.16757202l59.34017945-413.15322877c0.00988769-0.61056518-0.09310913-1.17581177-0.04779053-1.79544066a29.03933716 29.03933716 0 0 1 1.265625-6.67913819c3.82818604-12.1173706 15.36712646-19.98468018 28.64712524-19.98468017 0.72180176 0 1.4765625 0.03213501 2.22473145 0.08898925l405.20022583 29.94818115c43.28256226 0 81.30569458 34.23614502 86.41186523 76.33959961l47.32745362 270.68554688c3.51013184 28.92810059-4.53762818 54.4606018-22.07510376 74.25576782zM782.60232544 81.05419921999999c-32.85598755 0-59.47119141-26.61273193-59.47119141-59.46130372 0-32.85516357 26.61520386-59.4678955 59.47119141-59.4678955 32.85681153 0 59.46707153 26.61273193 59.46707153 59.4678955 0 32.84857177-26.61026001 59.46130372-59.46707153 59.46130372zM362.1404419 81.05419921999999c-32.85598755 0-59.4678955-26.61273193-59.46789552-59.46130372 0-32.85516357 26.61190796-59.4678955 59.46789552-59.4678955s59.46377563 26.61273193 59.46377563 59.4678955c0.00082398 32.84857177-26.60778809 59.46130372-59.46377563 59.46130372zM843.36386109 170.56503296000005H353.18054199c-12.72711182 0-25.34628297 11.74575805-27.03048706 25.68658447l-51.13998412 360.13046264-28.92480469 166.94631959C240.77062989 767.03283692 203.47918701 801.2698059100001 159.66104126 801.2698059100001H121.39813232c-16.58496094 0-30.03387451-13.45962524-30.03387451-30.03799438 0-16.57424927 13.44891357-30.03387451 30.03387451-30.03387452h38.26290894c13.03445435 0 26.36553955-11.95092773 28.16757202-26.57318115l28.97918701-167.58654786 50.93893433-358.59704589c5.28579712-43.69537354 43.34024048-73.21014404 86.61373902-73.21014404H843.36962891c16.60473633 0 28.84735107 11.05773926 28.84735107 27.66082763-0.00082398 16.61791991-12.24508667 27.67318726-28.85311889 27.67318726z"  horiz-adv-x="1024" />

    
    <glyph glyph-name="round-check-fill" unicode="&#58901;" d="M512 830.016C266.08 830.016 65.984 629.92 65.984 384c0-245.952 200.064-446.016 446.016-446.016 245.952 0 446.016 200.064 446.016 446.016C958.016 629.92 757.952 830.016 512 830.016zM727.232 457.568l-256.224-259.008c-0.064-0.064-0.192-0.096-0.256-0.192-0.096-0.064-0.096-0.192-0.192-0.256-2.048-1.984-4.576-3.2-6.944-4.544-1.184-0.672-2.144-1.696-3.392-2.176-3.84-1.536-7.904-2.336-11.968-2.336-4.096 0-8.224 0.8-12.096 2.4-1.28 0.544-2.304 1.632-3.52 2.304-2.368 1.344-4.832 2.528-6.88 4.544-0.064 0.064-0.096 0.192-0.16 0.256-0.064 0.096-0.192 0.096-0.256 0.192l-126.016 129.504c-12.32 12.672-12.032 32.928 0.64 45.248 12.672 12.288 32.896 12.064 45.248-0.64l103.264-106.112 233.28 235.84c12.416 12.576 32.704 12.704 45.248 0.256C739.52 490.4 739.648 470.144 727.232 457.568z"  horiz-adv-x="1024" />

    
    <glyph glyph-name="square-check-fill" unicode="&#58902;" d="M832 800L192 800C139.072 800 96 756.928 96 704l0-640c0-52.928 43.072-96 96-96l640 0c52.928 0 96 43.072 96 96L928 704C928 756.928 884.928 800 832 800zM727.232 457.568l-256.224-259.008c-0.064-0.064-0.192-0.096-0.256-0.192-0.096-0.064-0.096-0.192-0.192-0.256-2.048-1.984-4.576-3.2-6.944-4.544-1.184-0.672-2.144-1.696-3.392-2.176-3.84-1.536-7.904-2.336-11.968-2.336-4.096 0-8.224 0.8-12.096 2.4-1.28 0.544-2.304 1.632-3.52 2.304-2.368 1.344-4.832 2.528-6.88 4.544-0.064 0.064-0.096 0.192-0.16 0.256-0.064 0.096-0.192 0.096-0.256 0.192l-126.016 129.504c-12.32 12.672-12.032 32.928 0.64 45.248 12.672 12.288 32.896 12.064 45.248-0.64l103.264-106.112 233.28 235.808c12.416 12.576 32.704 12.672 45.248 0.256C739.52 490.368 739.648 470.112 727.232 457.568z"  horiz-adv-x="1024" />

    
    <glyph glyph-name="user-heart" unicode="&#58931;" d="M754.04209079 564.6852854c0 132.37889804-107.26499981 240.65519568-238.36292056 240.65519568-131.13163037 0-238.39663018-108.27629764-238.39663019-240.65519568 0-102.27592996 59.59915796-186.48333683 143.03123602-222.5866734C265.38293438 299.99490857 158.08422494 161.61564284999997 158.08422494-6.832881319999956c0-18.0685231 11.93331528-30.10296807 29.79957899-30.10296807 17.89997333 0 29.79957898 12.03444498 29.79957815 30.10296807 0 168.44852417 131.13163037 300.79371259 297.99578815 300.79371259 41.69918464 0 83.43207889-12.03444498 119.1983151-24.06889078 5.9329476 0 5.9329476-6.00036768 11.89960564-6.00036768 17.89997333 0 29.79957898 12.03444498 29.79957898 30.06925846a33.10315192 33.10315192 0 0 1-17.8662637 30.06925845c-17.89997333 12.06815543-35.7662362 18.0685231-47.66584186 24.06888996 83.43207889 36.10333576 142.99752639 120.34445307 142.9975264 216.58630572z m-238.36292056-180.48296914c-101.33205222 0-178.79747305 78.20703919-178.79747223 180.48296914 0 102.27592996 77.46542084 180.48296915 178.79747223 180.48296914 101.29834177 0 178.79747305-78.20703919 178.79747305-180.48296914 0-96.24185266-83.43207889-180.48296915-178.79747306-180.48296914zM795.20191648 210.76472222999996c-26.56342529 0-49.78956803-15.43914844-61.92514271-38.09222177a70.52117542 70.52117542 0 0 1-62.09369247 38.09222177c-38.69900078 0-70.01552609-32.15927417-70.0155261-71.83586234 0-18.87756153 7.04537512-35.93478598 18.64159168-48.84569028l107.50096884-110.26518282a8.93313144 8.93313144 0 0 1 5.96665805-2.52824497 8.93313144 8.93313144 0 0 1 6.00036768 2.52824497l107.46725921 110.26518282c11.42766678 12.7423537 18.47304189 29.96812876 18.47304191 48.84569028 0 39.67658816-31.3165253 71.83586233-70.0155261 71.83586234z"  horiz-adv-x="1024" />

    
    <glyph glyph-name="share" unicode="&#58880;" d="M426.81370198 298.81370198c12.16947103-12.16947103 30.42367758-12.16947103 48.67788491 0L846.66045655 669.98257242v-176.45733233c0-18.25420656 12.16947103-30.42367758 30.42367837-30.42367759s30.42367758 12.16947103 30.42367758 30.42367759V682.1520434500001c0 24.33894207-12.16947103 48.67788492-30.42367758 66.93209146-18.25420656 18.25420656-42.59314939 30.42367758-66.93209147 30.42367759H615.44050457c-18.25420656 0-36.50841311-12.16947103-36.50841311-30.42367759s12.16947103-30.42367758 30.4236776-30.42367836h182.54206783l-365.08413491-371.16886965c-12.16947103-12.16947103-12.16947103-36.50841311 0-48.67788492zM846.66045655 292.72896646000004v-182.54206707c0-18.25420656-6.08473552-30.42367758-18.25420654-42.5931494-12.16947103-12.16947103-24.33894207-18.25420656-42.5931494-18.25420656H238.18689939c-36.50841311 0-60.84735594 24.33894207-60.84735594 60.84735597V657.81310061c0 36.50841311 24.33894207 60.84735594 60.84735594 60.84735594h182.54206707V779.5078125H238.18689939C207.76322103 779.5078125 177.33954345 767.33834146 153.0006006 742.9993994 128.66165854 718.6604565499999 116.4921875 688.2367789699999 116.4921875 657.81310061v-547.62620122c0-30.42367758 12.16947103-60.84735594 36.50841311-85.18629879s54.76262043-36.50841311 85.18629878-36.5084131h547.62620122c66.93209146 0 121.6947119 54.76262043 121.69471189 121.69471189V292.72896646000004h-60.84735595z"  horiz-adv-x="1024" />

    
    <glyph glyph-name="heart" unicode="&#59296;" d="M840.2 672.36a237.52000031 237.52000031 0 0 1-168.36 70.15999969A236.23999969 236.23999969 0 0 1 512 680.20000031a236.16 236.16 0 0 1-159.84 62.31999938 237.67999969 237.67999969 0 0 1-168.52000031-70.32c-94.12000031-94.51999969-94.08-242.35999969 0.08000062-336.48l293.28-293.28c6.79999969-11.95999969 19.92-19.68 34.99999969-19.68a39.6 39.6 0 0 1 31.68 16.36000031l296.59999969 296.59999969c94.15999969 94.12000031 94.2 241.96000031-0.07999969 336.64000031z m-56.47999969-280.08L512 120.55999969000004l-271.72000031 271.72000031c-62.47999969 62.52-62.44000031 160.68-0.07999969 223.36000031 30.40000031 30.24 70.15999969 46.87999969 111.96 46.87999969s81.40000031-16.63999969 111.55999969-46.8l20.00000062-19.99999969a39.96 39.96 0 0 1 56.55999938 0l20.00000062 19.99999969c60.48 60.36 162.96 60.19999969 223.35999938 0.07999969 62.52-62.83999969 62.56000031-160.99999969 0.08000062-223.51999969z"  horiz-adv-x="1024" />

    
    <glyph glyph-name="female" unicode="&#58968;" d="M274.6953125 196.40625027l90.4921875 90.4921875A297.5449216 297.5449216 0 0 0 301.0625 471.89062527c0 165.0410159 133.78710938 298.82812527 298.82812527 298.82812446s298.82812527-133.78710938 298.82812446-298.82812446-133.78710938-298.82812527-298.82812446-298.82812527a297.5449216 297.5449216 0 0 0-184.9921875 64.125L324.40625027 146.6953125l71.82421875-71.82421875a35.15625027 35.15625027 0 0 0-49.71093777-49.71093777L274.6953125 96.98437473000001l-89.40234348-89.40234348a35.15625027 35.15625027 0 0 0-49.71093777 49.71093777L224.98437473 146.6953125l-71.82421875 71.82421875a35.15625027 35.15625027 0 0 0 49.71093777 49.71093777l71.82421875-71.82421875zM599.89062527 243.37499973c126.21093723 0 228.51562473 102.3046875 228.51562472 228.51562554S726.1015625 700.40625001 599.89062527 700.40625001s-228.51562473-102.3046875-228.51562554-228.51562474 102.3046875-228.51562473 228.51562554-228.51562554z"  horiz-adv-x="1024" />

    
    <glyph glyph-name="target" unicode="&#59043;" d="M513.14712715 496.0368576c-62.19978333 0-112.67415047-50.47359467-112.67415046-112.67415047 0-62.19978333 50.47359467-112.67415047 112.67415046-112.67415046 62.19978333 0 112.67415047 50.47359467 112.67415047 112.67415046-0.25491714 62.19978333-50.72851181 112.67415047-112.67415047 112.67415047z m0-174.10995484c-33.90398025 0-61.43503189 27.53105164-61.43503189 61.43580437s27.53105164 61.43503189 61.43503189 61.4350319 61.43503189-27.53105164 61.43503188-61.4350319-27.53105164-61.43503189-61.43503188-61.43503189zM883.54560089 409.10933876h-27.27613449c-2.80408859 37.47282028-11.47127152 73.67182732-26.00232124 108.34133148-17.33436585 41.0416603-42.06132889 77.74972915-73.67105485 109.36022759-31.61049843 31.60972596-68.31933975 56.33668899-109.36100005 73.67182732-34.66873169 14.53027725-71.12265587 23.45237732-108.59624863 26.00154875V754.01609802c0 14.02044297-11.47127152 25.49248697-25.49171448 25.49248696s-25.49171447-11.47127152-25.49171448-25.49171448v-27.27613449c-37.47282028-2.80408859-73.67182732-11.47127152-108.34133148-26.00232125-41.0416603-17.58928298-78.00464631-42.31624604-109.61514472-73.92597199-31.60972596-31.61049843-56.33668899-68.57425689-73.67182732-109.36100005-14.53027725-34.66873169-23.45237732-70.86773872-26.00154877-108.34133149H141.98390198c-14.02044297 0-25.49248697-11.47127152-25.49248696-25.49171447s11.47127152-25.49171447 25.49171448-25.49171448h28.04088593c2.80408859-37.47282028 11.47127152-73.67182732 26.00232124-108.34133147 17.33436585-41.0416603 42.06132889-77.74972915 73.67105483-109.36022759 31.61049843-31.60972596 68.31933975-56.33668899 109.36100008-73.67182732 34.66873169-14.53027725 70.86773872-23.45237732 108.34133147-26.00154877v-26.25646591c0-14.02044297 11.47127152-25.49248697 25.49171448-25.49248695s25.49171447 11.47127152 25.49171448 25.49171448v25.74663161c37.47282028 2.80408859 73.67182732 11.47127152 108.34133149 26.00232125 41.0416603 17.33436585 77.74972915 42.06132889 109.36022758 73.67105484 31.60972596 31.61049843 56.33668899 68.31933975 73.67182731 109.36100006 14.53027725 34.66873169 23.45237732 70.86773872 26.00154877 108.34133148h27.27613449c14.02044297 0 25.49248697 11.47127152 25.49248695 25.49171448 0.76475143 14.53027725-10.70652009 26.00154877-24.98188019 26.00154876zM538.63884162 91.73440360999996v59.65138436c0 14.02044297-11.47127152 25.49171447-25.49171447 25.49171447s-25.49171447-11.47127152-25.49171448-25.49171447v-59.65061188c-141.22564316 12.23602295-254.15548325 124.90940094-266.39150618 266.13581656h62.45547293c14.02044297 0 25.49171447 11.47127152 25.49171448 25.49171448s-11.47127152 25.49171447-25.49171448 25.49171448h-62.45470047c12.23602295 140.97072602 124.90940094 253.9005661 266.13581658 266.13658906v-57.6120472c0-14.02044297 11.47127152-25.49171447 25.49171448-25.49171447s25.49171447 11.47127152 25.49171447 25.49171447v57.86619187c141.48056031-12.23602295 254.15548325-125.16431809 266.3915062-266.13581658h-62.71039009c-14.02044297 0-25.49171447-11.47127152-25.49171448-25.49171448s11.47127152-25.49171447 25.49171448-25.49171447h62.70961761c-12.23602295-141.48056031-124.90940094-254.15548325-266.13581657-266.3915062z"  horiz-adv-x="1026" />

    
    <glyph glyph-name="bell" unicode="&#58903;" d="M842.440348 105.73913h-26.089739v369.530435a304.306087 304.306087 0 0 1-260.897392 301.234087v42.295652a43.453217 43.453217 0 1 1-86.950956 0v-42.295652A304.306087 304.306087 0 0 1 207.649391 475.269565v-369.574956h-26.089739a34.726957 34.726957 0 0 1-34.771478-34.771479v-34.816c0-4.763826 3.917913-8.681739 8.681739-8.681739h234.807652A121.811478 121.811478 0 0 1 512-94.252522a121.811478 121.811478 0 0 1 121.722435 121.722435h234.807652a8.726261 8.726261 0 0 1 8.681739 8.681739v34.816a34.726957 34.726957 0 0 1-34.771478 34.771478zM512-24.709565a52.179478 52.179478 0 0 0-52.179478 52.179478h104.358956c0-28.805565-23.373913-52.179478-52.179478-52.179478z m-226.081391 130.448695v369.530435c0 60.460522 23.462957 117.225739 66.203826 159.922087A224.52313 224.52313 0 0 0 512 701.44c60.416 0 117.181217-23.462957 159.877565-66.203826a224.52313 224.52313 0 0 0 66.203826-159.877565v-369.574957H285.918609z"  horiz-adv-x="1024" />

    
    <glyph glyph-name="delete" unicode="&#58904;" d="M329.344 768l8.96 74.88C341.76 872.064 365.056 896 390.208 896h243.52c25.088 0 48.448-23.872 51.968-53.12L694.656 768H800A96 96 0 0 0 896 672V640H128v32A96 96 0 0 0 224 768h105.344z m64.448 0h236.416l-7.68 64H401.472l-7.616-64zM736 0l32 448H640v-448h96zM448 0h128V448H448v-448z m-64 0V448H256l32-448H384z m432 576a57.6 57.6 0 0 0 58.24-63.744l-52.48-576.512c-3.136-35.072-34.56-63.744-69.76-63.744h-480c-35.2 0-66.624 28.672-69.76 63.744L149.76 512.256A57.536 57.536 0 0 0 208 576h608z"  horiz-adv-x="1024" />

    
    <glyph glyph-name="calendar" unicode="&#58905;" d="M946.920727 771.630545h-198.562909V847.266909a9.495273 9.495273 0 0 1-9.448727 9.448727h-66.187636a9.495273 9.495273 0 0 1-9.448728-9.448727v-75.636364h-302.545454V847.266909a9.495273 9.495273 0 0 1-9.448728 9.448727H285.090909a9.495273 9.495273 0 0 1-9.448727-9.448727v-75.636364H77.079273a37.794909 37.794909 0 0 1-37.794909-37.794909v-784.756363c0-20.945455 16.896-37.794909 37.794909-37.794909h869.841454c20.945455 0 37.794909 16.896 37.794909 37.794909V733.835636a37.794909 37.794909 0 0 1-37.794909 37.794909z m-47.290182-775.26109H124.369455V445.44h775.26109v-449.070545zM124.369455 525.824V686.545455h151.272727v-56.73891c0-5.166545 4.235636-9.448727 9.448727-9.448727h66.187636a9.495273 9.495273 0 0 1 9.448728 9.448727V686.545455h302.545454v-56.73891c0-5.166545 4.235636-9.448727 9.448728-9.448727h66.187636a9.495273 9.495273 0 0 1 9.448727 9.448727V686.545455h151.272727v-160.721455H124.369455z"  horiz-adv-x="1024" />

    
    <glyph glyph-name="chat-circle" unicode="&#58906;" d="M512-128C229.2224-128 0 101.2224 0 384 0 666.7776 229.2224 896 512 896c282.7776 0 512-229.2224 512-512 0-282.7776-229.2224-512-512-512z m251.8016 617.813333a272.759467 272.759467 0 0 1-58.692267 87.3472 270.677333 270.677333 0 0 1-87.3472 58.709334A271.650133 271.650133 0 0 1 511.965867 657.066667h-1.211734a272.315733 272.315733 0 0 1-192.904533-80.708267 271.189333 271.189333 0 0 1-58.026667-87.04A273.7152 273.7152 0 0 1 238.933333 382.72c0.170667-42.308267 10.325333-84.309333 29.269334-121.856v-92.637867c0-15.479467 12.578133-28.040533 28.023466-28.040533h92.7232A273.937067 273.937067 0 0 1 510.805333 110.933333h1.28c36.522667 0 71.901867 7.0656 105.250134 20.906667a270.762667 270.762667 0 0 1 87.04 58.026667 271.069867 271.069867 0 0 1 58.8288 86.545066 272.981333 272.981333 0 0 1 21.845333 106.376534 273.7152 273.7152 0 0 1-21.248 107.025066zM384 366.933333c-14.114133 0-25.6 11.4688-25.6 25.6s11.485867 25.6 25.6 25.6 25.6-11.4688 25.6-25.6a25.6 25.6 0 0 0-25.6-25.6z m119.466667 0c-14.114133 0-25.6 11.4688-25.6 25.6s11.485867 25.6 25.6 25.6 25.6-11.4688 25.6-25.6-11.485867-25.6-25.6-25.6z m119.466666 0c-14.114133 0-25.6 11.4688-25.6 25.6s11.485867 25.6 25.6 25.6 25.6-11.4688 25.6-25.6-11.485867-25.6-25.6-25.6z"  horiz-adv-x="1024" />

    
    <glyph glyph-name="unit" unicode="&#58907;" d="M1111.702335 146.523357a145.633167 145.633167 0 0 1-169.493361-16.766623l-69.538494 40.304382V369.003546c0 20.582104-11.016531 39.76699-28.857937 49.977433l-178.414065 102.749305V609.808793a146.976647 146.976647 0 1 1-94.473471 0v-88.02477l-178.414065-102.749305c-17.895146-10.210443-28.911677-29.395329-28.911677-49.977433v-198.888691l-69.538494-40.304382a145.633167 145.633167 0 0 1-169.493361 16.820362 147.191603 147.191603 0 0 1-53.792915-200.608344 145.901863 145.901863 0 0 1 199.694778-53.792915 146.922907 146.922907 0 0 1 70.290842 155.84361l63.94962 37.133771 184.432852-106.29609a58.03831 58.03831 0 0 1 57.715875 0l184.325374 106.188612 63.94962-37.133771a147.245342 147.245342 0 0 1 70.290842-155.843611 145.740645 145.740645 0 0 1 199.694778 53.739176 147.137864 147.137864 0 0 1-53.416741 200.608345z m-882.934662-181.584676a62.444923 62.444923 0 0 0-85.552769 23.107845 62.982314 62.982314 0 0 0 22.946628 85.982682 62.444923 62.444923 0 0 0 85.552769-23.107846c17.304015-30.093939 7.039832-68.624928-23.000368-85.982681z m326.250537 784.054579a62.982314 62.982314 0 1 0 125.964629 0 62.982314 62.982314 0 0 0-125.964629 0z m223.017581-585.380845L618.000525 71.342249l-160.089006 92.270166V347.722832L618.000525 440.046736l160.089005-92.270165v-184.164156z m314.750354-175.727106a62.60614 62.60614 0 0 0-85.499029-23.107846 63.089793 63.089793 0 0 0-23.000367 85.982682 62.60614 62.60614 0 0 0 85.552768 23.107846c30.093939-17.357754 40.304382-55.781265 22.946628-85.982682z"  horiz-adv-x="1236" />

    
    <glyph glyph-name="search" unicode="&#58908;" d="M900.16 758.176L528.528 884.832C524.032 886.352 518.016 887.12 512 887.12s-12.032-0.768-16.512-2.288L123.824 758.176c-9.072-3.072-16.512-13.568-16.512-23.2V207.36c0-9.632 6.24-22.32 13.776-28.32l377.024-293.792c3.84-2.944 8.752-4.48 13.776-4.48 5.04 0 10.08 1.536 13.776 4.48L902.688 179.04c7.552 5.92 13.776 18.608 13.776 28.336V734.992c0.224 9.616-7.2 20-16.288 23.184z m-62.224-529.824L512-25.6 186.064 228.352v467.68L512 807.184l325.936-111.12v-467.68z m-445.264 137.28l-84.768-84.768a8.784 8.784 0 0 1 0-12.368l37.184-37.184c3.392-3.392 8.96-3.392 12.368 0l84.768 84.768c60.912-38.4 142.288-31.072 195.344 21.984a157.568 157.568 0 0 1 0 222.912 157.568 157.568 0 0 1-222.912 0 157.6 157.6 0 0 1-21.984-195.36z m71.52 145.792a87.472 87.472 0 0 0 123.824 0 87.472 87.472 0 0 0 0-123.808 87.472 87.472 0 0 0-123.808 0 87.568 87.568 0 0 0 0 123.808z"  horiz-adv-x="1024" />

    
    <glyph glyph-name="doc" unicode="&#58909;" d="M878.256136 896H145.743732A36.56183 36.56183 0 0 1 109.114754 859.421383V-91.404428C109.114754-111.649409 125.481965-127.999832 145.743732-127.999832h732.512404A36.56183 36.56183 0 0 1 914.885114-91.421215V859.404596A36.56183 36.56183 0 0 1 878.256136 896z m-45.777828-941.710534H191.52156V184.001166h112.052441a221.737931 221.737931 0 0 1 67.651136-96.793165A221.889013 221.889013 0 0 1 511.999934 36.578764a221.251111 221.251111 0 0 1 140.774797 50.629237 221.737931 221.737931 0 0 1 67.651136 96.793165h112.052441v71.998939H662.628631l-5.959344-28.235536c-13.73167-68.322612-74.617693-118.045358-144.669353-118.045358s-130.937683 49.705959-144.786862 118.045358l-5.959343 28.235536H191.538347V813.710702h640.923174v-859.421236z m-540.235453 625.143504h439.514158c5.036065 0 9.148851 4.112786 9.148851 9.132064v54.859532c0 5.036065-4.112786 9.148851-9.148851 9.148851H292.242855c-5.036065 0-9.148851-4.112786-9.148851-9.148851v-54.859532c0-5.036065 4.112786-9.132064 9.148851-9.132064z m0-182.859511h439.514158c5.036065 0 9.148851 4.112786 9.148851 9.148851V460.548268c0 5.036065-4.112786 9.148851-9.148851 9.148851H292.242855c-5.036065 0-9.148851-4.112786-9.148851-9.148851v-54.842745c0-5.036065 4.112786-9.148851 9.148851-9.148851z"  horiz-adv-x="1024" />

    
    <glyph glyph-name="pencil" unicode="&#58910;" d="M736.064 133.312c17.664 0 31.936-15.488 31.936-34.688 0-19.136-14.272-34.624-31.936-34.624H32C14.272 64 0 79.488 0 98.624c0 19.2 14.272 34.688 31.936 34.688H736zM0 202.688l79.616 208 129.856-126.976L0 202.688z m252.288 138.624l-112.64 112.512 306.24 303.488 112.64-112.512-306.24-303.488z m365.44 346.688L488.64 816.064l64.512 64a55.04 55.04 0 0 0 77.376 0l51.584-51.2a54.08 54.08 0 0 0 0-76.8L617.6 688z"  horiz-adv-x="1102" />

    
    <glyph glyph-name="trophy" unicode="&#58911;" d="M957.001143 823.990857h-115.017143V874.002286c0 5.485714-4.48 10.002286-9.984 10.002285h-640c-5.485714 0-10.002286-4.498286-10.002286-10.002285v-49.993143H66.998857A55.003429 55.003429 0 0 1 11.995429 768.987429v-184.996572c0-102.125714 75.008-187.008 172.763428-202.514286 19.382857-145.243429 135.990857-259.620571 282.24-275.620571v-131.492571H222.006857c-22.125714 0-40.009143-17.883429-40.009143-40.009143v-40.374857c0-5.485714 4.498286-10.002286 10.002286-10.002286h640c5.485714 0 10.002286 4.498286 10.002286 10.002286v40.374857c0 22.125714-17.883429 40.009143-40.009143 40.009143H557.001143V105.874286c146.249143 16 262.875429 130.377143 282.24 275.620571 97.755429 15.506286 172.763429 100.388571 172.763428 202.514286V769.005714a55.003429 55.003429 0 0 1-55.003428 55.003429zM101.997714 584.009143V733.988571h80v-259.510857a114.980571 114.980571 0 0 0-80 109.494857z m650.002286-160c0-61.385143-23.881143-119.259429-67.382857-162.633143a228.443429 228.443429 0 0 0-162.614857-67.382857h-20.004572a228.224 228.224 0 0 0-162.614857 67.382857 228.443429 228.443429 0 0 0-67.382857 162.633143V794.002286h480v-370.011429z m170.002286 160a114.980571 114.980571 0 0 0-80-109.513143V734.006857h80v-150.016z"  horiz-adv-x="1024" />

    
    <glyph glyph-name="weibo-circle" unicode="&#58912;" d="M512-128C229.2224-128 0 101.2224 0 384S229.2224 896 512 896s512-229.2224 512-512-229.2224-512-512-512z m-75.9296 400.64c-9.8304-16.0768-30.848-23.1936-46.72-15.7184-15.6672 7.2448-20.2752 26.0608-10.4448 41.7792 9.6768 15.6672 30.1056 22.656 45.824 15.872 15.9488-6.9632 21.0176-25.6 11.3408-41.9328z m36.9664 114.304c-48.384 12.9536-103.0656-11.8272-124.0832-55.68-21.4528-44.8-0.768-94.4896 48.1536-110.7456 50.6368-16.7936 110.336 8.9088 131.0976 57.2672 20.48 47.2064-5.0688 95.8208-55.168 109.1584z m-10.1632-195.8912c-101.7088-10.3168-189.4912 36.9408-196.096 105.728-6.6048 68.6592 70.5536 132.8128 172.2368 143.1296 101.7088 10.3168 189.5168-37.0176 196.096-105.6768 6.6048-68.7616-70.5536-132.864-172.2368-143.1808z m203.52 228.0704c-8.7296 2.688-14.6432 4.48-10.112 16.1536 9.8304 25.4208 10.7776 47.36 0.2048 62.9504-19.9168 29.3376-74.5472 27.776-137.0624 0.768 0 0.0768-19.6608-8.8064-14.6432 7.1936 9.6256 31.8464 8.192 58.5472-6.8096 73.9328-33.9456 34.944-124.2112-1.28-201.5744-80.896C238.464 439.552 204.8 376.3968 204.8 321.7152 204.8 217.1904 335.1296 153.6 462.592 153.6c167.0912 0 278.272 99.8912 278.272 179.2 0 47.872-39.2448 75.0592-74.496 86.3232z m-18.0224 118.1184a38.4 38.4 0 0 0 36.9664-12.2368c9.2672-10.624 12.288-25.4976 8.0384-39.04h0.0768a20.864 20.864 0 0 1 12.9792-26.1888 19.84 19.84 0 0 1 15.4624 1.28 20.4032 20.4032 0 0 1 10.0352 12.1088 83.2 83.2 0 0 1-16.5632 79.744 77.824 77.824 0 0 1-75.4432 25.088 20.8128 20.8128 0 0 1-15.616-24.7296 20.8128 20.8128 0 0 1 8.8064-13.1072c4.5568-3.072 10.0352-4.0448 15.2576-2.9184z m162.9696-90.496c17.1776 55.04 6.3232 117.7088-34.1248 163.6352a159.872 159.872 0 0 1-154.8032 51.5328 24.2432 24.2432 0 0 1-18.1504-28.672 24.32 24.32 0 0 1 10.24-15.2576 22.9632 22.9632 0 0 1 17.7152-3.328c40.4736 8.8832 82.4576-5.12 110.08-36.6848a121.3696 121.3696 0 0 0 24.192-116.4032h0.0512a24.8576 24.8576 0 0 1 1.4592-18.4576c4.3264-8.704 13.312-13.8752 22.8096-13.1072a23.7056 23.7056 0 0 1 20.5312 16.6656v0.0768z"  horiz-adv-x="1024" />

    
    <glyph glyph-name="details" unicode="&#58913;" d="M102.4 896h819.2a102.4 102.4 0 0 0 102.4-102.4v-819.2a102.4 102.4 0 0 0-102.4-102.4H102.4a102.4 102.4 0 0 0-102.4 102.4V793.6a102.4 102.4 0 0 0 102.4 102.4z m156.0576-409.6c29.5936 0 53.6064 22.9376 53.6064 51.2s-24.0128 51.2-53.6064 51.2C228.8128 588.8 204.8 565.8624 204.8 537.6s24.0128-51.2 53.6576-51.2z m236.4928 102.4a51.2 51.2 0 1 1 0-102.4h256a51.2 51.2 0 0 1 0 102.4h-256z m-236.544-409.6c29.696 0 53.6576 22.9376 53.6576 51.2s-24.0128 51.2-53.6064 51.2C228.8128 281.6 204.8 258.6624 204.8 230.4s24.0128-51.2 53.6576-51.2z m236.544 102.4a51.2 51.2 0 0 1 0-102.4h256a51.2 51.2 0 0 1 0 102.4h-256z"  horiz-adv-x="1024" />

    
    <glyph glyph-name="wallet" unicode="&#58914;" d="M118.153846 817.230769a39.384615 39.384615 0 0 1-39.384615-39.384615v-787.692308a39.384615 39.384615 0 0 1 39.384615-39.384615h945.230769a39.384615 39.384615 0 0 1 39.384616 39.384615v787.692308a39.384615 39.384615 0 0 1-39.384616 39.384615h-945.230769z m0 78.769231h945.230769A118.153846 118.153846 0 0 0 1181.538462 777.846154v-787.692308a118.153846 118.153846 0 0 0-118.153847-118.153846h-945.230769A118.153846 118.153846 0 0 0 0-9.846154v787.692308A118.153846 118.153846 0 0 0 118.153846 896zM1102.769231 502.153846h-275.692308a118.153846 118.153846 0 0 1 0-236.307692H1102.769231V502.153846z m-275.692308 78.769231h315.076923a39.384615 39.384615 0 0 0 39.384616-39.384615v-315.076924a39.384615 39.384615 0 0 0-39.384616-39.384615h-315.076923a196.923077 196.923077 0 0 0 0 393.846154z"  horiz-adv-x="1181" />

    
    <glyph glyph-name="data" unicode="&#58915;" d="M583.4752 817.493333L175.5136 653.858133l407.9616-163.6352 407.9616 163.6352L583.4752 817.493333zM596.1728 885.896533l499.712-200.362666a34.133333 34.133333 0 0 0 0-63.351467l-499.712-200.362667a34.133333 34.133333 0 0 0-25.3952 0L70.997333 622.1824a34.133333 34.133333 0 0 0 0 63.351467L570.845867 885.896533a34.133333 34.133333 0 0 0 25.3952 0zM1070.421333 412.4672a34.133333 34.133333 0 1 0 25.3952-63.351467l-499.643733-200.362666a34.133333 34.133333 0 0 0-25.3952 0L70.997333 349.115733a34.133333 34.133333 0 1 0 25.463467 63.351467l486.946133-195.242667 486.946134 195.242667zM1070.421333 139.400533a34.133333 34.133333 0 1 0 25.3952-63.351466l-499.643733-200.362667a34.133333 34.133333 0 0 0-25.3952 0l-499.712 200.362667a34.133333 34.133333 0 1 0 25.463467 63.351466l486.946133-195.242666 486.946133 195.242666z"  horiz-adv-x="1160" />

    
    <glyph glyph-name="wechat-circle" unicode="&#58916;" d="M512-128C229.2224-128 0 101.2224 0 384S229.2224 896 512 896s512-229.2224 512-512-229.2224-512-512-512z m116.096 605.312c3.9936 0 7.9872-0.1536 11.904-0.3584C623.5136 569.344 532.992 640 423.7056 640 302.848 640 204.8 553.4208 204.8 446.592c0-58.24 29.4656-110.72 75.648-146.176 3.7376-2.816 6.144-7.424 6.144-12.6464a20.3776 20.3776 0 0 0-0.7168-4.9664c-3.7376-14.5664-9.6-37.888-9.8816-38.9888-0.4864-1.8432-1.152-3.712-1.152-5.6576 0-4.2496 3.2512-7.7568 7.296-7.7568a8.192 8.192 0 0 1 4.1984 1.4336l47.9232 29.3632c3.584 2.2272 7.4496 3.584 11.648 3.584 2.1504 0 4.3264-0.3584 6.4-0.9984a245.504 245.504 0 0 1 83.5072-10.3424 155.6992 155.6992 0 0 0-7.3728 47.3856c0 97.5104 89.3952 176.4864 199.68 176.4864zM499.2 563.2a38.4 38.4 0 1 0 0.0512-76.8512A38.4 38.4 0 0 0 499.2 563.2z m-153.6-76.8a38.4 38.4 0 1 0-0.0512 76.8512A38.4 38.4 0 0 0 345.6 486.4z m411.7248-301.6192C795.1104 213.632 819.2 256.2048 819.2 303.616 819.2 390.4 738.9952 460.8 640 460.8c-98.9184 0-179.2-70.3744-179.2-157.184 0-86.8352 80.2048-157.184 179.2-157.184a202.24 202.24 0 0 1 58.496 8.6016 16.7936 16.7936 0 0 0 14.7456-2.048l39.2192-23.808a6.4256 6.4256 0 0 1 3.456-1.1776 5.8112 5.8112 0 0 1 4.2496 1.8176 6.4768 6.4768 0 0 1 1.7408 4.48c0 1.536-0.6144 3.072-0.9472 4.608a11543.552 11543.552 0 0 1-8.0896 31.744 16.5888 16.5888 0 0 0-0.5888 3.9936 13.1328 13.1328 0 0 0 5.0432 10.1376zM563.2 332.8a25.6 25.6 0 1 0 0 51.2 25.6 25.6 0 0 0 0-51.2z m128 0a25.6 25.6 0 1 0 0 51.2 25.6 25.6 0 0 0 0-51.2z"  horiz-adv-x="1024" />

    
    <glyph glyph-name="msg" unicode="&#58917;" d="M984.175164 582.398934a511.436033 511.436033 0 0 1-110.079835 163.788555 507.544839 507.544839 0 0 1-163.788554 110.079835A509.336836 509.336836 0 0 1 512.009472 895.998464h-2.303997A510.565634 510.565634 0 0 1 147.978018 744.702691 508.517637 508.517637 0 0 1 39.178181 581.477336 513.22803 513.22803 0 0 1 0.01024 381.592836c0.358399-79.308681 19.353571-158.054163 54.886318-228.454058v-173.721339c0-29.030356 23.551965-52.582321 52.531121-52.582321h173.874939A513.63763 513.63763 0 0 1 509.756675-128h2.406397c68.505497 0 134.809398 13.26078 197.375704 39.219141a507.647239 507.647239 0 0 1 163.174155 108.799837 508.261638 508.261638 0 0 1 110.284635 162.303757 511.845632 511.845632 0 0 1 40.959938 199.3725c0.256 69.631896-13.26078 137.164594-39.78234 200.703699zM256.009856 332.799309a51.199923 51.199923 0 1 0 0.1024 102.502246A51.199923 51.199923 0 0 0 256.009856 332.799309z m255.999616 0a51.199923 51.199923 0 1 0 0.1024 102.502246A51.199923 51.199923 0 0 0 512.009472 332.799309z m204.799693 0a51.199923 51.199923 0 1 0 0.1024 102.502246A51.199923 51.199923 0 0 0 716.809165 332.799309z"  horiz-adv-x="1024" />

    
    <glyph glyph-name="book" unicode="&#58918;" d="M1289.142857 885.394286h-326.875428a364.982857 364.982857 0 0 1-197.705143-58.075429l-69.705143-44.763428-69.705143 44.763428A364.544 364.544 0 0 1 427.446857 885.394286H100.571429A45.641143 45.641143 0 0 1 54.857143 839.68v-811.373714c0-25.307429 20.48-45.714286 45.714286-45.714286h326.875428a364.982857 364.982857 0 0 0 197.705143-58.148571l63.414857-40.886858a11.922286 11.922286 0 0 1 6.144-1.828571c2.194286 0 4.315429 0.585143 6.144 1.828571l63.414857 40.886858a366.226286 366.226286 0 0 0 197.997715 58.148571h326.875428c25.307429 0 45.714286 20.406857 45.714286 45.714286V839.68a45.641143 45.641143 0 0 1-45.714286 45.714286zM427.446857 85.430857H157.696V782.555429h269.750857c50.541714 0 99.693714-14.409143 142.116572-41.691429l69.705142-44.690286 9.874286-6.436571v-660.041143a467.529143 467.529143 0 0 1-221.696 55.734857z m804.571429 0h-269.750857a467.529143 467.529143 0 0 1-221.696-55.734857V689.737143l9.874285 6.436571 69.705143 44.617143a262.217143 262.217143 0 0 0 142.116572 41.764572h269.750857v-697.124572zM530.432 599.698286H264.996571c-5.558857 0-10.166857-4.827429-10.166857-10.678857v-64.365715c0-5.851429 4.608-10.678857 10.166857-10.678857H530.285714c5.558857 0 10.166857 4.900571 10.166857 10.752v64.292572a10.24 10.24 0 0 1-10.020571 10.678857z m318.683429-10.678857v-64.365715c0-5.851429 4.608-10.678857 10.166857-10.678857h265.289143c5.558857 0 10.166857 4.900571 10.166857 10.752v64.292572c0 5.851429-4.608 10.678857-10.166857 10.678857h-265.289143c-5.558857 0-10.166857-4.827429-10.166857-10.678857zM530.432 399.725714H264.996571c-5.558857 0-10.166857-4.900571-10.166857-10.752v-64.292571c0-5.851429 4.608-10.678857 10.166857-10.678857H530.285714c5.558857 0 10.166857 4.827429 10.166857 10.678857v64.365714a10.24 10.24 0 0 1-10.020571 10.678857z m594.285714 0h-265.435428c-5.558857 0-10.166857-4.900571-10.166857-10.752v-64.292571c0-5.851429 4.608-10.678857 10.166857-10.678857h265.289143c5.558857 0 10.166857 4.827429 10.166857 10.678857v64.365714a10.24 10.24 0 0 1-10.020572 10.678857z"  horiz-adv-x="1389" />

    
    <glyph glyph-name="image" unicode="&#58919;" d="M888.9216 135.0912a31.8976 31.8976 0 0 0-45.1712-0.1024L678.464 300.2624l-109.568-109.568 82.0864-82.0864c12.5184-12.5056 12.5952-32.6912 0.0128-45.2736a31.9232 31.9232 0 0 0-45.2608 0.0256L310.272 358.784l-114.4704-114.5088a31.872 31.872 0 0 0-45.184 0.0768 32.0896 32.0896 0 0 0-0.064 45.184L286.464 425.4336c6.6432 6.656 15.488 9.7664 24.192 9.3184a31.9488 31.9488 0 0 0 23.5904-9.3952l189.376-189.4144 125.504 125.4912a31.8208 31.8208 0 0 0 29.3504 8.6272 31.744 31.744 0 0 0 29.312-8.576l181.2096-181.248a31.8336 31.8336 0 0 0-0.0768-45.1456M810.6752 704a85.3376 85.3376 0 1 0-0.0128-170.6752 85.3376 85.3376 0 0 0 0 170.6752m127.7952 192H85.5424A85.5296 85.5296 0 0 1 0 810.4576v-852.9152A85.5168 85.5168 0 0 1 85.5424-128h852.9152A85.5296 85.5296 0 0 1 1024-42.4576V810.4576A85.5168 85.5168 0 0 1 938.4576 896"  horiz-adv-x="1024" />

    
    <glyph glyph-name="user" unicode="&#58920;" d="M850.160941 4.577882c10.782118-32.888471 16.263529-67.343059 16.26353-102.460235a30.117647 30.117647 0 1 0-60.235295 0c0 28.732235-4.457412 56.862118-13.251764 83.727059a278.708706 278.708706 0 0 1-72.764236 114.688 30.117647 30.117647 0 0 0 4.939295 47.344941C835.644235 216.545882 903.529412 333.643294 903.529412 461.703529 903.529412 668.009412 728.485647 835.764706 512 835.764706S120.470588 668.009412 120.470588 461.703529c0-128.060235 67.885176-245.157647 178.416941-313.825882a30.117647 30.117647 0 0 0 4.939295-47.344941 278.708706 278.708706 0 0 1-72.764236-114.627765 268.769882 268.769882 0 0 1-13.251764-83.787294 30.117647 30.117647 0 1 0-60.235295 0c0 35.117176 5.481412 69.632 16.26353 102.520471a336.414118 336.414118 0 0 0 63.066353 112.579764C126.915765 198.415059 60.235294 324.547765 60.235294 461.703529 60.235294 701.801412 262.746353 896 512 896S963.764706 701.861647 963.764706 461.703529c0-137.155765-66.680471-263.288471-176.670118-344.545882a336.414118 336.414118 0 0 0 63.066353-112.579765zM573.379765 343.762824a30.117647 30.117647 0 0 0 46.260706-38.550589l-3.855059-4.638117a135.228235 135.228235 0 0 0-212.329412 6.023529 30.117647 30.117647 0 0 0 48.368941 35.900235 74.992941 74.992941 0 0 1 117.76-3.312941l3.794824 4.577883z"  horiz-adv-x="1024" />

    
    <glyph glyph-name="wechat" unicode="&#58921;" d="M798.656 552.256c7.36 0 14.72-0.256 21.952-0.64C790.144 712.512 622.72 835.52 420.736 835.52 197.248 835.52 16 684.736 16 498.752c0-101.376 54.528-192.768 139.904-254.528a26.88 26.88 0 0 0 9.984-30.592 28192.64 28192.64 0 0 1-18.24-67.84c-0.896-3.264-2.176-6.528-2.176-9.92 0-7.36 6.016-13.44 13.504-13.44a15.808 15.808 0 0 1 7.744 2.432l88.64 51.136a42.176 42.176 0 0 0 21.504 6.272c4.032 0 8-0.64 11.904-1.792a479.936 479.936 0 0 1 154.368-17.92 256.64 256.64 0 0 0-13.632 82.432c0 169.728 165.248 307.2 369.152 307.2z m-242.88 108.16a53.888 53.888 0 0 0 0-107.776 54.016 54.016 0 0 0-54.016 53.888c0 29.696 24.256 53.824 54.016 53.824zM285.888 552.576a53.888 53.888 0 0 0 0 107.776 53.888 53.888 0 1 0 0-107.776z m733.44-519.488c71.168 51.456 116.544 127.488 116.544 212.096 0 155.008-151.04 280.64-337.344 280.64-186.24 0-337.408-125.632-337.408-280.64 0-155.008 151.04-280.64 337.408-280.64a400 400 0 0 1 110.08 15.36 33.216 33.216 0 0 0 27.776-3.584l73.856-42.496a11.264 11.264 0 0 1 14.528 1.152 11.264 11.264 0 0 1 3.2 7.936c0 2.752-1.088 5.504-1.728 8.32l-15.232 56.576a28.16 28.16 0 0 0-1.152 7.104 23.04 23.04 0 0 0 9.536 18.176zM686.336 289.92a44.928 44.928 0 1 0-0.128 89.92 44.928 44.928 0 0 0 0.128-89.92z m224.832 0a44.928 44.928 0 1 0-0.064 89.92 44.928 44.928 0 0 0 0.064-89.92z"  horiz-adv-x="1152" />

    
    <glyph glyph-name="weibo" unicode="&#58922;" d="M543.597714 339.748571c-97.28 25.234286-207.140571-23.186286-249.417143-108.909714-43.008-87.405714-1.462857-184.393143 96.841143-216.137143 101.668571-32.841143 221.696 17.408 263.387429 111.908572 40.96 92.233143-10.24 187.099429-110.811429 213.138285z m-74.313143-223.158857c-19.748571-31.597714-62.171429-45.348571-93.988571-30.866285-31.451429 14.262857-40.740571 50.980571-20.845714 81.700571 19.529143 30.573714 60.416 44.324571 92.013714 31.012571 31.963429-13.604571 42.276571-50.029714 22.820571-81.92z m65.024 83.529143c-7.168-12.288-23.04-18.139429-35.328-12.946286-12.141714 4.973714-15.945143 18.651429-9.142857 30.72 7.168 11.995429 22.308571 17.700571 34.450286 12.946286 12.434286-4.534857 16.822857-18.432 10.020571-30.72z m477.842286 281.746286a40.886857 40.886857 0 0 1 51.273143 26.112 159.158857 159.158857 0 0 1-184.539429 204.726857 40.667429 40.667429 0 1 1 16.969143-79.433143 78.262857 78.262857 0 0 0 74.166857-23.844571c19.236571-21.430857 24.576-50.541714 16.091429-76.141715a40.667429 40.667429 0 0 1 26.038857-51.419428z m142.628572 294.253714A326.729143 326.729143 0 0 1 843.629714 876.836571a47.323429 47.323429 0 1 1 19.821715-92.598857 232.301714 232.301714 0 0 0 269.750857-298.788571 47.177143 47.177143 0 1 1 89.892571-29.257143v0.073143a327.241143 327.241143 0 0 1-68.461714 319.853714z m-223.085715-373.540571c-17.408 5.12-29.257143 8.704-20.114285 31.597714 19.748571 49.517714 21.723429 92.379429 0.438857 122.88-40.009143 57.197714-149.723429 54.125714-275.456 1.462857 0 0-39.424-17.261714-29.403429 14.043429 19.236571 62.171429 16.384 114.102857-13.750857 144.310857-68.096 68.242286-249.417143-2.56-404.992-157.988572C72.118857 442.441143 4.534857 318.902857 4.534857 212.260571c0-204.068571 261.778286-328.265143 517.851429-328.265142 335.725714 0 559.030857 194.998857 559.030857 349.988571 0 93.622857-78.848 146.578286-149.723429 168.594286z m-408.576-445.44c-204.288-20.114286-380.708571 72.118857-393.947428 206.409143-13.312 134.144 141.677714 259.291429 345.965714 279.405714 204.288 20.333714 380.708571-72.118857 394.020571-206.262857 13.165714-134.144-141.750857-259.291429-345.965714-279.552z"  horiz-adv-x="1243" />

    
    <glyph glyph-name="setting" unicode="&#58923;" d="M472.847059 807.755294L157.876706 639.397647C138.24 628.916706 120.470588 599.461647 120.470588 577.355294v-386.710588c0-21.865412 17.889882-51.681882 37.466353-62.102588l314.849883-168.297412c20.660706-11.023059 57.825882-11.023059 78.426352 0l314.849883 168.297412c19.696941 10.541176 37.466353 39.996235 37.466353 62.102588V577.355294c0 21.865412-17.889882 51.681882-37.466353 62.102588L551.152941 807.755294c-20.660706 11.023059-57.825882 11.023059-78.426353 0zM444.355765 860.882824c38.369882 20.48 96.798118 20.48 135.168 0l314.849882-168.297412C933.647059 671.683765 963.764706 621.507765 963.764706 577.355294v-386.710588c0-44.393412-30.057412-94.268235-69.270588-115.230118l-314.910118-168.297412c-38.369882-20.48-96.798118-20.48-135.168 0L129.505882 75.414588C90.352941 96.316235 60.235294 146.492235 60.235294 190.644706V577.355294c0 44.393412 30.057412 94.268235 69.270588 115.230118L444.476235 860.882824zM512 233.411765a150.588235 150.588235 0 1 0 0 301.17647 150.588235 150.588235 0 0 0 0-301.17647z m0 60.235294a90.352941 90.352941 0 1 1 0 180.705882 90.352941 90.352941 0 0 1 0-180.705882z"  horiz-adv-x="1024" />

    
    <glyph glyph-name="home" unicode="&#58924;" d="M85.469867 578.423467a34.133333 34.133333 0 0 1-17.2032-29.627734V-25.6a34.133333 34.133333 0 0 1 34.133333-34.133333h819.2a34.133333 34.133333 0 0 1 34.133333 34.133333V548.795733a34.133333 34.133333 0 0 1-17.2032 29.627734L529.066667 812.8512a34.133333 34.133333 0 0 1-33.860267 0L85.469867 578.423467z m-33.928534 59.255466L461.2096 872.106667a102.4 102.4 0 0 0 101.717333 0l409.6-234.427734a102.4 102.4 0 0 0 51.473067-88.8832V-25.6a102.4 102.4 0 0 0-102.4-102.4H102.4A102.4 102.4 0 0 0 0-25.6V548.795733a102.4 102.4 0 0 0 51.541333 88.8832zM477.866667 384m34.133333 0l0 0q34.133333 0 34.133333-34.133333l0-204.8q0-34.133333-34.133333-34.133334l0 0q-34.133333 0-34.133333 34.133334l0 204.8q0 34.133333 34.133333 34.133333Z"  horiz-adv-x="1024" />

    
    <glyph glyph-name="rocket" unicode="&#58925;" d="M928.023273 119.249455a330.752 330.752 0 0 1-189.114182 298.914909v195.956363a74.938182 74.938182 0 0 1-17.826909 48.686546L540.951273 876.357818a37.748364 37.748364 0 0 1-57.902546 0L302.917818 662.807273a75.589818 75.589818 0 0 1-17.826909-48.686546v-195.956363a330.752 330.752 0 0 1-189.114182-298.868364h184.971637c-2.699636-8.517818-4.142545-17.733818-4.142546-28.16a114.781091 114.781091 0 0 1 76.241455-107.985455A172.311273 172.311273 0 0 1 512-121.809455c34.397091 0 67.723636 10.146909 96.209455 29.323637a171.52 171.52 0 0 1 62.650181 75.589818c19.968 7.121455 37.562182 19.549091 50.920728 36.072727 16.290909 20.340364 25.274182 45.847273 25.274181 71.866182 0 9.914182-1.303273 19.362909-3.67709 28.113455h184.599272v0.139636z m-120.226909 135.447272c11.124364-17.221818 20.107636-35.84 26.624-55.063272h-100.258909v129.163636c29.323636-19.130182 54.458182-44.311273 73.634909-74.100364z m-442.321455 163.467637V612.305455L512 786.059636l146.525091-173.754181v-412.672H365.474909v218.530909z m-175.895273-218.530909a251.485091 251.485091 0 0 0 100.212364 129.163636v-129.163636H189.626182z m459.636364-137.309091a31.837091 31.837091 0 0 0-20.200727-4.049455l-23.04 2.839273-3.351273-22.900364A92.020364 92.020364 0 0 0 512-40.401455c-45.242182 0-84.247273 33.792-90.624 78.615273l-3.351273 23.04-23.04-2.978909a32.721455 32.721455 0 0 0-20.200727 4.142546 33.28 33.28 0 0 0-16.663273 28.858181c0 12.520727 6.981818 22.900364 17.221818 28.113455h273.408a31.185455 31.185455 0 0 0 17.221819-28.113455 33.512727 33.512727 0 0 0-16.756364-28.951272zM455.214545 516.375273a56.738909 56.738909 0 1 1 113.477819 0 56.738909 56.738909 0 0 1-113.477819 0z"  horiz-adv-x="1024" />

    
    <glyph glyph-name="alipay" unicode="&#58926;" d="M318.045091 82.827636c-150.295273 0-174.08 101.376-166.097455 143.732364 7.912727 42.123636 51.432727 97.210182 134.981819 97.210182 96.023273 0 182.039273-26.321455 285.323636-79.941818-72.541091-100.933818-161.652364-161.000727-254.208-161.000728M1024 195.002182V699.112727C1024 807.796364 935.796364 896 827.042909 896H196.887273A196.957091 196.957091 0 0 1 0 699.112727v-630.225454C0-39.773091 88.133818-128 196.887273-128h630.178909c96.884364 0 177.431273 70.050909 193.861818 162.117818-52.224 22.597818-278.504727 120.32-396.427636 176.616727-89.739636-108.706909-183.691636-173.917091-325.306182-173.91709-141.637818 0-236.171636 87.249455-224.814546 193.978181 7.493818 70.074182 55.528727 184.692364 264.331637 165.003637 110.010182-10.309818 160.395636-30.859636 250.088727-60.485818a705.466182 705.466182 0 0 1 57.134545 139.240727H248.064v39.424h196.840727v70.772363H204.823273v43.42691H444.974545V730.414545s2.164364 15.965091 19.828364 15.965091h98.443636v-118.155636h256v-43.426909h-256v-70.772364h208.849455c-19.2-78.149818-48.337455-149.946182-84.829091-212.666182 60.672-21.946182 336.756364-106.356364 336.756364-106.356363"  horiz-adv-x="1024" />

    
    <glyph glyph-name="success" unicode="&#58927;" d="M957.997844 636.124554L533.825536 211.968a40.928492 40.928492 0 0 0-57.895385 0l-179.908923 179.782892a40.912738 40.912738 0 0 0 0 57.895385 40.928492 40.928492 0 0 0 57.911139 0l150.795815-150.890339L911.208921 705.1264a509.432123 509.432123 0 0 1-38.801723 43.181292C776.403259 843.618462 649.805351 896 515.40929 896h-3.497354C373.404121 895.007508 244.191074 841.412923 147.99809 745.015138 51.836613 648.727631-0.670956 520.444062 0.006459 383.842462 1.613351 101.691077 231.304428-128 512.006459-128 794.315382-128 1024.006459 101.691077 1024.006459 383.952738c0 89.891446-23.000615 176.080738-66.008615 252.171816z"  horiz-adv-x="1024" />

    


  </font>
</defs>
</svg>
